<?xml version="1.0" encoding="utf-8"?>
<!-- Generator: Adobe Illustrator 22.1.0, SVG Export Plug-In . SVG Version: 6.00 Build 0)  -->
<svg version="1.1" id="Layer_1" xmlns="http://www.w3.org/2000/svg" xmlns:xlink="http://www.w3.org/1999/xlink" x="0px" y="0px"
	 viewBox="0 0 70 70" style="enable-background:new 0 0 70 70;" xml:space="preserve">
<style type="text/css">
	.st0{fill:#A2CAE7;}
	.st1{fill:#2278C9;}
</style>
<title>phone 70x70</title>
<g id="high_light">
	<g>
		<path class="st0" d="M36.4,28.2c-0.1,0-0.2,0-0.3-0.1c-0.2-0.2-0.3-0.5-0.1-0.7l2.5-3.3c0.1-0.1,0.2-0.2,0.4-0.2h15.2
			c1.3,0,1.3-0.6,1.3-0.9V9.9c0-0.2,0-0.9-1.3-0.9h-7.8c-0.3,0-0.5-0.2-0.5-0.5s0.2-0.5,0.5-0.5h7.8c1.4,0,2.3,0.7,2.3,1.9V23
			c0,1.2-0.8,1.9-2.3,1.9h-15L36.8,28C36.7,28.1,36.6,28.2,36.4,28.2z"/>
	</g>
</g>
<g id="base">
	<g>
		<path class="st1" d="M18.2,40.5c4.1,11.7,10.6,20.3,14.5,18.9l9.3-3.2c1-0.4,1.5-1.5,1.1-2.5c0-0.1-0.1-0.1-0.1-0.2L38.6,45
			c-0.4-0.8-1.4-1.2-2.3-0.9l-1.8,0.6c-3.2,1.1-6.7-0.5-7.8-3.7c0,0,0,0,0,0l-2.2-6.4c-1.1-3.2,0.6-6.7,3.8-7.8l2-0.7
			c0.9-0.3,1.4-1.3,1.2-2.2L29.6,15c-0.2-1-1.2-1.7-2.2-1.5c-0.1,0-0.2,0-0.2,0.1l-9.3,3.3C13.9,18.2,14.1,28.8,18.2,40.5z"/>
		<path class="st1" d="M31.9,60.1c-1.9,0-4.3-1.7-6.7-4.9c-2.8-3.6-5.4-8.8-7.4-14.5c-3.3-9.3-4.1-18.2-2.2-22.2
			c0.5-1.1,1.2-1.8,2.1-2.1l9.3-3.2c0.1,0,0.2-0.1,0.3-0.1c0.6-0.1,1.3,0,1.8,0.3c0.5,0.3,0.9,0.9,1,1.5l1.9,8.9
			c0.2,1.2-0.4,2.4-1.5,2.8l-2,0.7c-2.9,1-4.5,4.2-3.4,7.1l2.2,6.4c1,2.9,4.2,4.5,7.2,3.4l1.8-0.6c1.1-0.4,2.4,0.1,2.9,1.2l4.4,8.5
			c0,0.1,0.1,0.2,0.1,0.3c0.2,0.6,0.2,1.2,0,1.8s-0.7,1-1.3,1.3l-9.3,3.2C32.5,60,32.2,60.1,31.9,60.1z M27.7,14c-0.1,0-0.2,0-0.3,0
			c-0.1,0-0.1,0-0.2,0.1L18,17.3c-0.6,0.2-1.2,0.7-1.6,1.6c-1.8,3.7-0.9,12.5,2.2,21.4l0,0c2,5.6,4.6,10.7,7.3,14.2
			c2.6,3.4,5,5,6.6,4.4l9.3-3.2c0.7-0.3,1.1-1.1,0.8-1.8c0-0.1,0-0.1-0.1-0.1l-4.4-8.5c-0.3-0.6-1-0.9-1.7-0.7l-1.8,0.6
			c-3.4,1.2-7.2-0.6-8.4-4L24,34.7c-1.2-3.4,0.6-7.2,4.1-8.4l2-0.7c0.7-0.2,1-0.9,0.9-1.6l-1.9-8.9c-0.1-0.4-0.3-0.7-0.6-0.9
			C28.3,14.1,28,14,27.7,14z"/>
	</g>
	<g>
		<path class="st1" d="M36.7,28.4c-0.3,0-0.6-0.1-0.8-0.3c-0.2-0.2-0.4-0.5-0.4-0.8l0-17.3c0-1.3,1-2.3,2.3-2.3h17.1
			c1.3,0,2.3,1,2.3,2.3V23c0,1.3-1,2.2-2.3,2.2H39.7l-2,2.7C37.4,28.2,37.1,28.3,36.7,28.4C36.8,28.4,36.7,28.4,36.7,28.4z
			 M37.8,8.7c-0.7,0-1.3,0.6-1.3,1.3v17.2c0,0,0,0.1,0.1,0.1c0.1,0.1,0.2,0.1,0.3,0l2.3-3.1h15.7c0.7,0,1.3-0.6,1.3-1.2v-13
			c0-0.7-0.6-1.3-1.3-1.3H37.8z"/>
	</g>
	<g>
		<circle class="st1" cx="41.8" cy="17.3" r="1.2"/>
	</g>
	<g>
		<circle class="st1" cx="46.3" cy="17.3" r="1.2"/>
	</g>
	<g>
		<circle class="st1" cx="50.9" cy="17.3" r="1.2"/>
	</g>
</g>
</svg>
